HIERARCHY
ROOT Hips
{
    OFFSET   0.000000   0.000000   0.000000
    CHANNELS 6 Xposition Yposition Zposition Zrotation Xrotation Yrotation
    JOINT Chest
    {
        OFFSET   0.000000   8.007230   0.000000
        CHANNELS 3 Zrotation Xrotation Yrotation
        JOINT Chest2
        {
            OFFSET   0.000000  22.077100   0.000000
            CHANNELS 3 Zrotation Xrotation Yrotation
            JOINT Neck
            {
                OFFSET   0.000000  23.255100   0.000000
                CHANNELS 3 Zrotation Xrotation Yrotation
                JOINT Head
                {
                    OFFSET   0.000000  14.370100   1.956600
                    CHANNELS 3 Zrotation Xrotation Yrotation
                    End Site
                    {
                        OFFSET   0.000000  19.566000   0.000000
                    }
                }
            }
            JOINT LeftCollar
            {
                OFFSET   3.911900  19.017000  -0.467063
                CHANNELS 3 Zrotation Xrotation Yrotation
                JOINT LeftShoulder
                {
                    OFFSET  10.383700   0.000000   0.000000
                    CHANNELS 3 Zrotation Xrotation Yrotation
                    JOINT LeftElbow
                    {
                        OFFSET  26.662100   0.001193   0.000980
                        CHANNELS 3 Zrotation Xrotation Yrotation
                        JOINT LeftWrist
                        {
                            OFFSET  28.869000  -0.000059  -0.000082
                            CHANNELS 3 Zrotation Xrotation Yrotation
                            JOINT LeftFinger0
                            {
                                OFFSET   2.044650  -2.323450   3.252850
                                CHANNELS 3 Zrotation Xrotation Yrotation
                                JOINT LeftFinger01
                                {
                                    OFFSET   3.088130   0.000000   0.000000
                                    CHANNELS 3 Zrotation Xrotation Yrotation
                                    JOINT LeftFinger02
                                    {
                                        OFFSET   2.639460   0.000000   0.000000
                                        CHANNELS 3 Zrotation Xrotation Yrotation
                                        End Site
                                        {
                                            OFFSET   2.582190   0.000000   0.000000
                                        }
                                    }
                                }
                            }
                            JOINT LeftFinger1
                            {
                                OFFSET   8.364480   0.000000   3.252850
                                CHANNELS 3 Zrotation Xrotation Yrotation
                                JOINT LeftFinger11
                                {
                                    OFFSET   4.646930   0.000000   0.000000
                                    CHANNELS 3 Zrotation Xrotation Yrotation
                                    JOINT LeftFinger12
                                    {
                                        OFFSET   2.323470   0.000000   0.000000
                                        CHANNELS 3 Zrotation Xrotation Yrotation
                                        End Site
                                        {
                                            OFFSET   2.273050   0.000000   0.000000
                                        }
                                    }
                                }
                            }
                            JOINT LeftFinger2
                            {
                                OFFSET   8.364490   0.000016   1.078090
                                CHANNELS 3 Zrotation Xrotation Yrotation
                                JOINT LeftFinger21
                                {
                                    OFFSET   5.111610   0.000000   0.000000
                                    CHANNELS 3 Zrotation Xrotation Yrotation
                                    JOINT LeftFinger22
                                    {
                                        OFFSET   2.788150   0.000016   0.000000
                                        CHANNELS 3 Zrotation Xrotation Yrotation
                                        End Site
                                        {
                                            OFFSET   2.727660   0.000000   0.000000
                                        }
                                    }
                                }
                            }
                            JOINT LeftFinger3
                            {
                                OFFSET   7.899780   0.000015  -1.078090
                                CHANNELS 3 Zrotation Xrotation Yrotation
                                JOINT LeftFinger31
                                {
                                    OFFSET   4.646930   0.000000   0.000000
                                    CHANNELS 3 Zrotation Xrotation Yrotation
                                    JOINT LeftFinger32
                                    {
                                        OFFSET   2.323470   0.000000   0.000000
                                        CHANNELS 3 Zrotation Xrotation Yrotation
                                        End Site
                                        {
                                            OFFSET   2.273050   0.000000   0.000000
                                        }
                                    }
                                }
                            }
                            JOINT LeftFinger4
                            {
                                OFFSET   7.435090   0.000000  -3.252850
                                CHANNELS 3 Zrotation Xrotation Yrotation
                                JOINT LeftFinger41
                                {
                                    OFFSET   3.717550   0.000000   0.000000
                                    CHANNELS 3 Zrotation Xrotation Yrotation
                                    JOINT LeftFinger42
                                    {
                                        OFFSET   1.858770   0.000000   0.000000
                                        CHANNELS 3 Zrotation Xrotation Yrotation
                                        End Site
                                        {
                                            OFFSET   1.818440   0.000000   0.000000
                                        }
                                    }
                                }
                            }
                        }
                    }
                }
            }
            JOINT RightCollar
            {
                OFFSET  -3.911910  19.017000  -0.467062
                CHANNELS 3 Zrotation Xrotation Yrotation
                JOINT RightShoulder
                {
                    OFFSET -10.383700   0.000014   0.000000
                    CHANNELS 3 Zrotation Xrotation Yrotation
                    JOINT RightElbow
                    {
                        OFFSET -26.662100   0.001225   0.001091
                        CHANNELS 3 Zrotation Xrotation Yrotation
                        JOINT RightWrist
                        {
                            OFFSET -28.869000  -0.000020  -0.000085
                            CHANNELS 3 Zrotation Xrotation Yrotation
                            JOINT RightFinger0
                            {
                                OFFSET  -2.044650  -2.323490   3.252850
                                CHANNELS 3 Zrotation Xrotation Yrotation
                                JOINT RightFinger01
                                {
                                    OFFSET  -3.088130   0.000000   0.000000
                                    CHANNELS 3 Zrotation Xrotation Yrotation
                                    JOINT RightFinger02
                                    {
                                        OFFSET  -2.639460   0.000000   0.000000
                                        CHANNELS 3 Zrotation Xrotation Yrotation
                                        End Site
                                        {
                                            OFFSET  -2.582190   0.000000   0.000000
                                        }
                                    }
                                }
                            }
                            JOINT RightFinger1
                            {
                                OFFSET  -8.364480   0.000000   3.252850
                                CHANNELS 3 Zrotation Xrotation Yrotation
                                JOINT RightFinger11
                                {
                                    OFFSET  -4.646930   0.000000   0.000000
                                    CHANNELS 3 Zrotation Xrotation Yrotation
                                    JOINT RightFinger12
                                    {
                                        OFFSET  -2.323470   0.000000   0.000000
                                        CHANNELS 3 Zrotation Xrotation Yrotation
                                        End Site
                                        {
                                            OFFSET  -2.273050   0.000000   0.000000
                                        }
                                    }
                                }
                            }
                            JOINT RightFinger2
                            {
                                OFFSET  -8.364480   0.000000   1.078090
                                CHANNELS 3 Zrotation Xrotation Yrotation
                                JOINT RightFinger21
                                {
                                    OFFSET  -5.111620   0.000000   0.000000
                                    CHANNELS 3 Zrotation Xrotation Yrotation
                                    JOINT RightFinger22
                                    {
                                        OFFSET  -2.788160   0.000000   0.000000
                                        CHANNELS 3 Zrotation Xrotation Yrotation
                                        End Site
                                        {
                                            OFFSET  -2.727660   0.000000   0.000000
                                        }
                                    }
                                }
                            }
                            JOINT RightFinger3
                            {
                                OFFSET  -7.899780   0.000000  -1.078090
                                CHANNELS 3 Zrotation Xrotation Yrotation
                                JOINT RightFinger31
                                {
                                    OFFSET  -4.646930   0.000000   0.000000
                                    CHANNELS 3 Zrotation Xrotation Yrotation
                                    JOINT RightFinger32
                                    {
                                        OFFSET  -2.323470   0.000000   0.000000
                                        CHANNELS 3 Zrotation Xrotation Yrotation
                                        End Site
                                        {
                                            OFFSET  -2.273050   0.000000   0.000000
                                        }
                                    }
                                }
                            }
                            JOINT RightFinger4
                            {
                                OFFSET  -7.435090   0.000000  -3.252850
                                CHANNELS 3 Zrotation Xrotation Yrotation
                                JOINT RightFinger41
                                {
                                    OFFSET  -3.717550   0.000000   0.000000
                                    CHANNELS 3 Zrotation Xrotation Yrotation
                                    JOINT RightFinger42
                                    {
                                        OFFSET  -1.858760   0.000000   0.000000
                                        CHANNELS 3 Zrotation Xrotation Yrotation
                                        End Site
                                        {
                                            OFFSET  -1.818440   0.000000   0.000000
                                        }
                                    }
                                }
                            }
                        }
                    }
                }
            }
        }
    }
    JOINT LeftHip
    {
        OFFSET   9.783030   0.000000   0.000000
        CHANNELS 3 Zrotation Xrotation Yrotation
        JOINT LeftKnee
        {
            OFFSET   0.000063 -41.789100   0.000608
            CHANNELS 3 Zrotation Xrotation Yrotation
            JOINT LeftAnkle
            {
                OFFSET   0.000048 -41.133200  -0.000184
                CHANNELS 3 Zrotation Xrotation Yrotation
                JOINT LeftToe
                {
                    OFFSET   0.000000  -6.358960  14.674500
                    CHANNELS 3 Zrotation Xrotation Yrotation
                    End Site
                    {
                        OFFSET   0.000000   0.000000   3.913200
                    }
                }
            }
        }
    }
    JOINT RightHip
    {
        OFFSET  -9.783030   0.000000   0.000000
        CHANNELS 3 Zrotation Xrotation Yrotation
        JOINT RightKnee
        {
            OFFSET   0.000071 -41.789100   0.001239
            CHANNELS 3 Zrotation Xrotation Yrotation
            JOINT RightAnkle
            {
                OFFSET   0.000037 -41.133200  -0.000166
                CHANNELS 3 Zrotation Xrotation Yrotation
                JOINT RightToe
                {
                    OFFSET   0.000000  -6.358960  14.674500
                    CHANNELS 3 Zrotation Xrotation Yrotation
                    End Site
                    {
                        OFFSET   0.000000   0.000000   3.913200
                    }
                }
            }
        }
    }
}
MOTION
Frames: 4
Frame Time:   0.016667
  2.408320  89.455100  -1.426770  -2.260020  -1.832720   2.502500   1.493840   2.066610  -0.734684   3.017010   4.113150  -1.524540   0.243220   0.078531   0.004009   0.404425   0.159271   5.863400  -5.848200   3.938820   1.694830 -69.353000  11.595100  -4.095970  -2.408070  -4.347710  -9.485670   3.281960 -10.876000   4.916970  43.761200  31.559500 -69.775300 -19.106200   0.001380   0.001367  -4.553100   0.000000   0.007767 -29.580000   4.936460  -8.620320 -24.506400   0.007867   0.003861 -17.154500   0.000322   0.004146 -28.004200   3.767740  -7.046800 -33.615300  -0.010408  -0.005585 -22.387800  -0.003287  -0.006301 -28.107500  -2.005290   3.748280 -33.204600  -0.000757   0.002812 -22.114300   0.007376  -0.000223 -31.569800  -2.228110   3.620420 -47.460600  -0.001111  -0.006661 -31.608800  -0.005612  -0.004665   4.495960   0.917484   5.795380  72.289300   1.825600   0.359603  -0.024526  -5.826490   6.726510  -8.456970 -10.347600   4.364350 -38.118800  34.667300  70.279700  32.227000  -0.013960   0.004621  11.113500  -0.004869  -0.000835  28.400400   5.661420  10.339700  23.656200   0.004835  -0.003267  16.559300   0.007389  -0.006078  27.440300   4.454110   8.512200  30.534100   0.000324  -0.005459  20.335700   0.001327  -0.000599  27.626700   2.730740   5.201210  30.506500   0.000244   0.000314  20.317300   0.005153  -0.004849  33.400400   0.598589   0.908028  50.107700  -0.000747  -0.002645  33.371800  -0.003991   0.000747   4.327730   4.453660   2.826310   1.506840   0.077246  10.579000  -1.383910  -1.560550   1.486730  -0.000000   0.000000   0.000000  -0.373796   1.990640  -4.817780   0.863481   3.253600 -12.276900   2.398590  -2.875500  -2.999110  -0.000000   0.000000   0.000000
  2.400000  89.455000  -1.444690  -2.258930  -1.851100   2.511840   1.494330   2.081240  -0.734716   3.018340   4.142420  -1.524850   0.242913   0.082336   0.004049   0.403701   0.167170   5.876780  -5.850610   3.938840   1.694840 -69.367500  11.586600  -4.096210  -2.403630  -4.386620  -9.473400   3.293170 -10.885700   4.937080  43.750700  31.546000 -69.762800 -19.082500   0.001382   0.001367  -4.541250   0.000000   0.007774 -29.601200   4.933190  -8.607400 -24.523100   0.007866   0.003858 -17.166200   0.000318   0.004146 -28.005700   3.762210  -7.035040 -33.651200  -0.010407  -0.005584 -22.411700  -0.003287  -0.006300 -28.112200  -2.025480   3.785130 -33.249900  -0.000756   0.002811 -22.144500   0.007376  -0.000224 -31.592800  -2.251690   3.655260 -47.497200  -0.001110  -0.006661 -31.633100  -0.005612  -0.004663   4.495680   0.917738   5.796070  72.275800   1.825600   0.359619  -0.011882  -5.841260   6.710240  -8.469370 -10.330600   4.333550 -38.118900  34.693300  70.267900  32.267000  -0.013970   0.004613  11.133500  -0.004875  -0.000836  28.378400   5.671980  10.367100  23.639500   0.004832  -0.003262  16.547600   0.007387  -0.006079  27.439200   4.458400   8.519440  30.551000   0.000315  -0.005455  20.346900   0.001322  -0.000596  27.620600   2.744100   5.228620  30.479900   0.000236   0.000318  20.299600   0.005152  -0.004847  33.404100   0.596359   0.904309  50.113300  -0.000749  -0.002644  33.375500  -0.003992   0.000749   4.329960   4.484100   2.826850   1.512690   0.025437  10.579900  -1.386950  -1.513660   1.475970  -0.000000   0.000000   0.000000  -0.373252   1.866510  -4.817790   0.854668   3.392050 -12.280000   2.391640  -2.875380  -3.006150   0.000000   0.000000   0.000000
  2.386690  89.455000  -1.473720  -2.257020  -1.882580   2.528530   1.496740   2.105590  -0.734910   3.023470   4.191090  -1.526190   0.242603   0.090901   0.004089   0.402397   0.184692   5.898420  -5.857770   3.938860   1.694890 -69.395200  11.572300  -4.096370  -2.394570  -4.460370  -9.443960   3.307230 -10.909200   4.965950  43.733900  31.521600 -69.737200 -19.058800   0.001384   0.001371  -4.529400   0.000000   0.007782 -29.638500   4.927200  -8.584320 -24.552500   0.007863   0.003853 -17.186700   0.000309   0.004146 -28.008900   3.749850  -7.009570 -33.709500  -0.010407  -0.005580 -22.450600  -0.003287  -0.006298 -28.119500  -2.059460   3.847250 -33.322000  -0.000752   0.002808 -22.192500   0.007377  -0.000225 -31.631100  -2.291420   3.713960 -47.558300  -0.001108  -0.006661 -31.673800  -0.005612  -0.004658   4.495340   0.917984   5.800890  72.249000   1.825600   0.359634   0.008385  -5.866590   6.682050  -8.489840 -10.306500   4.284490 -38.120000  34.737400  70.248400  32.331800  -0.013987   0.004593  11.165900  -0.004884  -0.000838  28.353800   5.688930  10.408400  23.622800   0.004825  -0.003257  16.535900   0.007385  -0.006080  27.436500   4.468520   8.537850  30.567900   0.000291  -0.005447  20.358200   0.001309  -0.000589  27.614500   2.758290   5.256030  30.453300   0.000212   0.000331  20.281900   0.005152  -0.004841  33.423200   0.590443   0.894463  50.141700  -0.000754  -0.002642  33.394400  -0.003995   0.000755   4.335190   4.514530   2.827400   1.518540  -0.026373  10.580800  -1.395030  -1.466770   1.456940   0.000000   0.000000   0.000000  -0.372707   1.742380  -4.817810   0.846132   3.530450 -12.287400   2.380350  -2.874680  -3.017380  -0.000000   0.000000   0.000000
  2.377230  89.454900  -1.495240  -2.255340  -1.909840   2.544090   1.502540   2.125180  -0.735792   3.035300   4.230140  -1.528890   0.242598   0.102593   0.004056   0.400494   0.208116   5.915110  -5.871170   3.937750   1.699280 -69.426800  11.561400  -4.095220  -2.381140  -4.537430  -9.396060   3.302920 -10.947100   4.980790  43.719300  31.491200 -69.697400 -19.059700   0.001373   0.001385  -4.529910   0.000000   0.007778 -29.673900   4.919630  -8.556620 -24.580200   0.007857   0.003848 -17.206100   0.000298   0.004149 -28.016300   3.728040  -6.966500 -33.756100  -0.010406  -0.005577 -22.481600  -0.003292  -0.006296 -28.124000  -2.094390   3.911430 -33.374900  -0.000746   0.002803 -22.227700   0.007378  -0.000228 -31.663300  -2.331710   3.774520 -47.610600  -0.001104  -0.006658 -31.708700  -0.005611  -0.004651   4.495370   0.916074   5.814680  72.218600   1.826290   0.353155   0.023507  -5.889040   6.659000  -8.508520 -10.296300   4.248950 -38.126100  34.775500  70.232700  32.381800  -0.013997   0.004559  11.190900  -0.004889  -0.000832  28.353400   5.702570  10.432100  23.624800   0.004817  -0.003258  16.537300   0.007388  -0.006083  27.431800   4.484970   8.570220  30.558400   0.000257  -0.005439  20.351900   0.001291  -0.000577  27.620800   2.758850   5.254240  30.488500   0.000172   0.000356  20.305300   0.005154  -0.004832  33.476000   0.578889   0.875333  50.220600  -0.000757  -0.002638  33.446900  -0.004000   0.000764   4.343270   4.484550   2.826840   1.519290   0.054924  10.579600  -1.412780  -1.489450   1.438790  -0.000000   0.000000   0.000000  -0.370970   1.828350  -4.813640   0.858382   3.460910 -12.299100   2.372000  -2.872770  -3.024680  -0.000000   0.000000   0.000000
